<svg xmlns="http://www.w3.org/2000/svg" width="40" height="40" viewBox="0 0 40 40" fill="none">
  <g clip-path="url(#clip0)">
    <path d="M39.2222 22.7371C39.2222 32.2711 30.5522 40 19.8571 40C9.16208 40 0.492035 32.2711 0.492035 22.7371C0.492035 13.203 9.16208 10.3077 19.8571 10.3077C30.5522 10.3077 39.2222 13.203 39.2222 22.7371Z" fill="#FF6347"/>
    <rect width="25.5127" height="5.10254" transform="matrix(0.706211 -0.708001 0.706211 0.708001 15.8192 18.063)" fill="#41E6A0"/>
    <rect width="12.2461" height="4.83671" transform="matrix(0.706211 0.708001 -0.706211 0.708001 11.0422 6.42975)" fill="#41E6A0"/>
    <ellipse cx="29.2598" cy="23.7908" rx="3.24617" ry="2.01997" fill="#FF8873"/>
    <path d="M23.5911 18.417C20.5031 18.1744 17.9495 21.4496 17.0587 23.1175C18.1475 22.5615 20.8297 21.2373 22.8488 20.3882C24.8679 19.5391 29.2327 20.0344 31.1628 20.3882C29.9256 19.8322 26.6792 18.6596 23.5911 18.417Z" fill="#D35A44"/>
    <path d="M15.2866 18.4134C17.3943 18.2401 19.1372 20.5795 19.7452 21.7709C19.0021 21.3737 17.1713 20.4279 15.7932 19.8213C14.4151 19.2148 11.4359 19.5686 10.1186 19.8213C10.963 19.4242 13.1788 18.5866 15.2866 18.4134Z" fill="#D35A44"/>
  </g>
  <defs>
    <clipPath id="clip0">
    <rect width="40" height="40" fill="white"/>
    </clipPath>
  </defs>
</svg>